<?xml version="1.0" encoding="iso-8859-1"?>
<!-- Generator: Adobe Illustrator 19.0.0, SVG Export Plug-In . SVG Version: 6.00 Build 0)  -->
<svg version="1.1" id="Capa_1" xmlns="http://www.w3.org/2000/svg" xmlns:xlink="http://www.w3.org/1999/xlink" x="0px" y="0px"
	 viewBox="0 0 512.001 512.001" style="enable-background:new 0 0 512.001 512.001;" xml:space="preserve">
<g>
	<g>
		<g>
			<path d="M309.935,196.442c0,4.597,1.791,8.918,5.04,12.166l34.32,34.321c3.354,3.354,7.761,5.031,12.167,5.031
				s8.813-1.678,12.167-5.031l34.32-34.32c6.708-6.709,6.708-17.624,0-24.335l-34.32-34.318c-3.249-3.25-7.57-5.041-12.167-5.041
				s-8.917,1.79-12.168,5.04l-34.319,34.319C311.725,187.525,309.935,191.846,309.935,196.442z M325.582,194.882l34.319-34.319
				c0.534-0.535,1.144-0.647,1.561-0.647s1.025,0.112,1.56,0.647l34.32,34.318c0.86,0.86,0.86,2.261,0,3.121l-34.32,34.32
				c-0.859,0.862-2.261,0.86-3.12,0.001l-34.32-34.321c-0.534-0.534-0.646-1.143-0.646-1.56S325.047,195.416,325.582,194.882z"/>
			<path d="M366.659,131.484c1.919,0,3.839-0.732,5.304-2.196l17.218-17.218h26.014c4.143,0,7.5-3.357,7.5-7.5s-3.357-7.5-7.5-7.5
				h-11.014l6.61-6.61c1.406-1.408,2.196-3.315,2.196-5.304V65.742c0-4.143-3.357-7.5-7.5-7.5s-7.5,3.357-7.5,7.5V82.05
				L380.77,99.267l-19.414,19.414c-2.929,2.929-2.929,7.677,0,10.607C362.821,130.752,364.74,131.484,366.659,131.484z"/>
			<path d="M133.691,92.655h26.014l36.632,36.632c1.464,1.464,3.384,2.196,5.303,2.196s3.839-0.732,5.303-2.196
				c2.929-2.929,2.929-7.677,0-10.607l-17.217-17.217V75.449c0-4.143-3.358-7.5-7.5-7.5c-4.142,0-7.5,3.357-7.5,7.5v11.015
				l-6.609-6.609c-0.001-0.001-0.002-0.002-0.003-0.003l-17.216-17.216V46.328c0-4.143-3.358-7.5-7.5-7.5
				c-4.142,0-7.5,3.357-7.5,7.5v19.414c0,1.99,0.79,3.897,2.197,5.304l6.61,6.61h-11.014c-4.142,0-7.5,3.357-7.5,7.5
				S129.549,92.656,133.691,92.655z"/>
			<path d="M499.646,419.344H445.61c-4.143,0-7.5,3.357-7.5,7.5s3.357,7.5,7.5,7.5H497v33.535H15v-33.535h399.872
				c4.143,0,7.5-3.357,7.5-7.5s-3.357-7.5-7.5-7.5h-65.458c6.596-5.686,12.922-12.174,18.917-19.423l76.705-92.739h6.075
				c12.164,0,22.061-9.896,22.061-22.061c0-7.945-4.223-14.921-10.541-18.805l12.786-19.18c3.003,1.16,6.261,1.803,9.669,1.803
				c14.841,0,26.914-12.073,26.914-26.914s-12.073-26.914-26.914-26.914s-26.914,12.073-26.914,26.914
				c0,5.99,1.968,11.527,5.29,16.003l-16.688,25.032H285.772V157.688c0-4.542,2.523-8.625,6.586-10.656
				c3.336-1.669,7.319-1.668,10.655,0c3.707,1.852,8.209,0.351,10.063-3.354c1.853-3.705,0.352-8.21-3.354-10.063
				c-7.535-3.769-16.535-3.771-24.072,0c-9.177,4.587-14.878,13.812-14.878,24.072v105.372H256.65V126.276
				c0-4.143-3.358-7.5-7.5-7.5c-4.142,0-7.5,3.357-7.5,7.5V263.06h-14.12v-78.542c0-10.26-5.701-19.484-14.878-24.073
				c-7.537-3.77-16.536-3.769-24.072,0c-3.705,1.852-5.207,6.356-3.355,10.062c1.853,3.706,6.356,5.21,10.062,3.354
				c3.336-1.668,7.32-1.668,10.656,0c4.063,2.031,6.586,6.115,6.586,10.657v78.542H63.285l-15.802-23.703
				c3.955-4.686,6.346-10.734,6.346-17.332c0-14.841-12.074-26.914-26.914-26.914C12.075,195.111,0,207.185,0,222.025
				c0,14.84,12.074,26.914,26.914,26.914c2.821,0,5.541-0.438,8.098-1.247l13.015,19.522c-5.565,4.009-9.199,10.539-9.199,17.906
				c0,12.164,9.896,22.061,22.061,22.061h6.074l76.706,92.739c5.99,7.242,12.32,13.728,18.929,19.423H12.354
				C5.542,419.344,0,424.886,0,431.697v38.828c0,6.812,5.542,12.354,12.354,12.354h46.859v16.768
				c0,6.812,5.542,12.354,12.354,12.354h80.568c6.812,0,12.354-5.542,12.354-12.354v-16.768h183.023v16.768
				c0,6.812,5.542,12.354,12.354,12.354h80.568c6.812,0,12.354-5.542,12.354-12.354v-16.768h46.859
				c6.812,0,12.354-5.542,12.354-12.354v-38.828C512,424.886,506.458,419.344,499.646,419.344z M485.086,210.111
				c6.569,0,11.914,5.345,11.914,11.914c0,6.569-5.345,11.914-11.914,11.914c-6.569,0-11.914-5.345-11.914-11.914
				C473.172,215.456,478.517,210.111,485.086,210.111z M26.914,233.939c-6.569,0-11.914-5.344-11.914-11.914
				c0-6.569,5.345-11.914,11.914-11.914s11.914,5.345,11.914,11.914C38.828,228.594,33.483,233.939,26.914,233.939z M60.889,292.182
				c-3.893,0-7.061-3.167-7.061-7.061c0-3.894,3.167-7.061,7.061-7.061h390.223c3.894,0,7.061,3.167,7.061,7.061
				c0,3.894-3.167,7.061-7.061,7.061h-9.578c-0.009,0-0.019,0-0.028,0H60.889z M155.227,390.36l-68.798-83.179H425.57
				l-68.797,83.179c-9.713,11.744-20.756,21.609-31.934,28.529c-0.228,0.141-0.445,0.293-0.652,0.454H187.883
				c-0.045-0.028-0.085-0.061-0.131-0.089C176.326,412.264,165.08,402.274,155.227,390.36z M149.488,497H74.213v-14.121h75.275V497z
				 M437.787,497h-75.275v-14.121h75.275V497z"/>
			<path d="M241.039,99.094c0.019,0.02,0.038,0.038,0.057,0.058c11.87,11.869,27.462,17.805,43.055,17.805
				c15.593,0,31.185-5.936,43.056-17.806c23.739-23.74,23.739-62.369,0-86.109c-0.029-0.029-0.06-0.059-0.089-0.088
				c-4.426-4.359-11.598-4.322-16.024,0.102l-18.149,18.149c-0.009,0.009-0.018,0.018-0.027,0.027l-33.626,33.626
				c-0.013,0.013-0.026,0.026-0.039,0.039L241.11,83.038C236.676,87.473,236.647,94.668,241.039,99.094z M298.405,46.956
				c2.067,2.844,3.199,6.244,3.199,9.826c0,4.479-1.744,8.688-4.912,11.856c-3.167,3.167-7.377,4.911-11.855,4.911
				c-3.582,0-6.983-1.132-9.825-3.2L298.405,46.956z M264.327,81.034c5.729,4.86,12.913,7.515,20.51,7.515
				c8.485,0,16.463-3.305,22.462-9.305c6.001-6,9.306-13.978,9.306-22.463c0-7.596-2.656-14.781-7.516-20.51l9.968-9.968
				c15.393,18.01,14.573,45.208-2.457,62.239c-17.03,17.032-44.229,17.853-62.24,2.458L264.327,81.034z"/>
			<path d="M143.338,238.232c15.592,0,31.185-5.935,43.055-17.804c0.017-0.017,0.033-0.034,0.05-0.051
				c0.004-0.004,0.009-0.009,0.013-0.013c4.386-4.427,4.355-11.617-0.077-16.05l-18.146-18.146c-0.01-0.01-0.021-0.021-0.031-0.031
				l-33.623-33.624c-0.013-0.013-0.026-0.026-0.039-0.039l-18.143-18.143h-0.001c-4.435-4.435-11.631-4.461-16.057-0.067
				c-0.019,0.018-0.037,0.035-0.054,0.053c-23.741,23.741-23.741,62.37,0,86.111C112.153,232.298,127.746,238.232,143.338,238.232z
				 M129.083,168.234l23.393,23.394c-2.843,2.067-6.243,3.2-9.825,3.2c-4.479,0-8.689-1.744-11.856-4.912
				c-3.167-3.166-4.911-7.377-4.911-11.855C125.884,174.477,127.017,171.076,129.083,168.234z M108.432,147.582l9.968,9.968
				c-4.86,5.728-7.516,12.913-7.516,20.51c0,8.485,3.305,16.463,9.305,22.462c6,6.001,13.978,9.306,22.463,9.306
				c7.597,0,14.782-2.656,20.51-7.515l9.968,9.968c-18.008,15.394-45.207,14.575-62.239-2.458
				C93.858,192.79,93.039,165.592,108.432,147.582z"/>
			<path d="M211.348,53.828c14.84,0,26.914-12.073,26.914-26.914S226.188,0,211.348,0c-14.84,0-26.914,12.073-26.914,26.914
				S196.507,53.828,211.348,53.828z M211.348,15c6.569,0,11.914,5.345,11.914,11.914c0,6.569-5.345,11.914-11.914,11.914
				c-6.569,0-11.914-5.345-11.914-11.914C199.434,20.345,204.778,15,211.348,15z"/>
		</g>
	</g>
</g>
<g>
</g>
<g>
</g>
<g>
</g>
<g>
</g>
<g>
</g>
<g>
</g>
<g>
</g>
<g>
</g>
<g>
</g>
<g>
</g>
<g>
</g>
<g>
</g>
<g>
</g>
<g>
</g>
<g>
</g>
</svg>
