<svg id="Capa_1" enable-background="new 0 0 512 512" height="512" viewBox="0 0 512 512" width="512" xmlns="http://www.w3.org/2000/svg"><g><g><circle cx="246.497" cy="334.5" r="7.5"/><circle cx="306.497" cy="340.5" r="7.5"/><circle cx="275.497" cy="351.5" r="7.5"/><circle cx="198.497" cy="340.5" r="7.5"/><circle cx="162.497" cy="307.5" r="7.5"/><path d="m499.108 365.096h-50.892v-21.034l61.514-78.212c2.518-3.201 2.977-7.465 1.197-11.129-1.779-3.664-5.415-5.939-9.487-5.939h-53.447c-4.142 0-7.5 3.358-7.5 7.5s3.358 7.5 7.5 7.5h44.28l-55.2 70.185h-50.386c1.253-19.608-8.538-39.165-26.781-49.417-12.978-7.293-28.227-8.708-42.14-4.175-3.316-6.755-8.391-12.449-14.804-16.592h110.031c4.142 0 7.5-3.358 7.5-7.5s-3.358-7.5-7.5-7.5h-118.141c-1.034-3.134-2.406-6.165-4.147-9.015-3.934-6.436-9.501-11.741-16.049-15.382 2.036-10.589.093-21.55-5.631-30.916-6.872-11.243-18.386-18.657-31.185-20.453-.49-6.668-2.559-13.105-6.125-18.939-7.167-11.726-19.146-18.742-31.861-20.083l-6.024-64.372c-.438-4.681-3.811-8.536-8.391-9.593-4.581-1.06-9.3.929-11.747 4.944l-13.443 22.069-24.303-8.783c-4.42-1.599-9.346-.19-12.254 3.503s-3.122 8.812-.532 12.734l37.674 57.059c-3.117 4.371-5.403 9.34-6.7 14.716-2.397 9.932-1.172 20.166 3.41 29.175-7.35-2.214-15.187-2.316-22.758-.193-.873.245-1.729.527-2.577.825l-6.119-9.959c-2.168-3.528-6.787-4.632-10.316-2.464s-4.632 6.788-2.464 10.316l5.896 9.595c-2.564 2.2-4.858 4.723-6.828 7.536l-47.511-27.81 14.891-1.658c5.051-.563 9.047-4.645 9.501-9.707l1.338-14.922 3.875 6.307c2.168 3.528 6.787 4.633 10.317 2.463 3.529-2.168 4.632-6.788 2.463-10.317l-10.614-17.273c-2.425-3.948-7.086-5.889-11.597-4.83-4.511 1.06-7.82 4.873-8.234 9.488l-2.177 24.268-24.216 2.696c-4.605.513-8.346 3.903-9.309 8.435s1.076 9.15 5.076 11.492l59.954 35.094c-3.282 13.33.408 27.509 9.677 37.548-10.24-2.666-20.643-1.174-29.379 3.443l-41.644-41.764c-3.271-3.281-8.256-4.093-12.399-2.02-4.144 2.073-6.483 6.546-5.82 11.132l3.485 24.115-22.94 8.214c-4.362 1.563-7.219 5.725-7.109 10.357.11 4.632 3.161 8.654 7.592 10.007l57.07 17.441c.59 17.243 12.14 32.936 29.6 37.938 2.834.812 5.708 1.313 8.601 1.501.672 8.284 3.797 16.019 8.739 22.356h-98.716c-4.402 0-8.453 2.21-10.835 5.912-2.382 3.702-2.716 8.305-.892 12.312l3.713 8.157c16.808 36.921 53.881 60.778 94.447 60.778h313.35c40.566 0 77.639-23.856 94.447-60.778l3.713-8.157c1.824-4.007 1.49-8.609-.892-12.312s-6.432-5.913-10.835-5.913zm-432.132-76.773-42.687-13.045 14.105-5.051c4.785-1.713 7.729-6.607 7.003-11.638l-2.143-14.828 31.346 31.437c-3.266 3.767-5.883 8.183-7.624 13.125zm313.068 68.032c1.353-2.408 2.494-4.879 3.433-7.389h49.739v16.13h-59.331c2.313-2.674 4.387-5.588 6.159-8.741zm-161.128-194.456c3.212 5.256 4.546 11.269 3.859 17.388-.245 2.177.475 4.352 1.969 5.954s3.611 2.466 5.803 2.377c10.431-.438 20.254 4.798 25.679 13.673 4.558 7.457 5.459 16.46 2.475 24.702-.678 1.872-.584 3.937.262 5.739.846 1.803 2.373 3.195 4.246 3.87 6.185 2.23 11.267 6.375 14.697 11.987 1.784 2.918 2.992 6.12 3.637 9.433-3.693-.12-7.408.244-11.057 1.117-3.739-6.358-9.118-11.667-15.612-15.316-6.251-3.514-13.321-5.349-20.444-5.372-3.294-9.74-10.039-17.935-19.168-23.065-10.898-6.124-23.835-6.995-35.305-2.694.254-.23.494-.471.758-.694 1.799-1.516 2.783-3.789 2.656-6.139s-1.349-4.503-3.301-5.817c-3.292-2.216-6.012-5.062-8.087-8.457-3.831-6.268-4.992-13.653-3.269-20.794 1.724-7.141 6.125-13.184 12.393-17.015 12.941-7.909 29.9-3.816 37.809 9.123zm-76.405-65.319 15.801 5.711h.001c4.849 1.752 10.314-.172 12.998-4.575l8.741-14.349 4.839 51.705c-3.995 1.022-7.907 2.645-11.605 4.905-.505.309-.998.633-1.488.96zm-19.251 125.359c6.993-12.444 22.806-16.878 35.249-9.886 5.054 2.84 8.914 7.165 11.162 12.507.85 2.019 2.54 3.566 4.625 4.234s4.36.39 6.225-.759c8.355-5.153 18.851-5.373 27.392-.573 7.175 4.032 12.057 11.016 13.395 19.161.323 1.964 1.413 3.72 3.031 4.88s3.63 1.63 5.595 1.304c6.11-1.012 12.193.057 17.592 3.092 5.532 3.108 9.805 8.094 12.031 14.037.718 1.918 2.19 3.459 4.073 4.265 1.884.806 4.015.806 5.897.001 7.784-3.326 16.467-2.863 23.826 1.273 6.424 3.61 10.994 9.533 12.866 16.678.576 2.196 2.115 4.014 4.188 4.943s4.454.869 6.477-.164c11.301-5.768 24.638-5.508 35.674.693 18.138 10.193 24.603 33.243 14.41 51.381-1.023 1.821-2.191 3.527-3.471 5.127 1.064-23.819-14.249-46.201-38.15-53.047-14.312-4.099-29.475-1.956-41.965 5.666-5.338-6.477-12.49-11.183-20.754-13.55-10.29-2.948-21.032-1.892-30.382 2.833-5.105-5.323-11.565-9.247-18.727-11.299-6.893-1.975-14.196-2.127-21.132-.506-5.454-8.716-13.908-15.132-23.976-18.017-6.076-1.741-12.349-2.053-18.38-1.057-.172-.44-.376-.869-.633-1.276-1.258-1.988-3.376-3.271-5.721-3.465-3.722-.307-7.265-1.394-10.53-3.228-6.028-3.387-10.376-8.919-12.244-15.577-1.869-6.657-1.031-13.644 2.357-19.671zm370.21 163.322c-14.378 31.584-46.092 51.993-80.795 51.993h-313.35c-34.703 0-66.417-20.408-80.795-51.993l-2.352-5.166h183.822c4.142 0 7.5-3.358 7.5-7.5s-3.358-7.5-7.5-7.5h-63.105c-12.461-3.751-20.633-16.013-18.945-29.2.299-2.333-.515-4.672-2.198-6.317s-4.039-2.405-6.366-2.05c-3.692.56-7.391.321-10.991-.71-6.647-1.904-12.155-6.283-15.509-12.33-3.354-6.046-4.152-13.038-2.248-19.685s6.283-12.155 12.33-15.509c6.046-3.353 13.038-4.152 19.685-2.248 5.573 1.596 10.327 4.914 13.749 9.593 1.292 1.769 3.294 2.883 5.478 3.052 2.188.169 4.333-.627 5.881-2.176 6.938-6.943 17.099-9.581 26.519-6.883 7.913 2.267 14.275 7.935 17.457 15.551.767 1.837 2.233 3.294 4.076 4.049 1.842.755 3.909.747 5.745-.023 5.71-2.395 11.876-2.76 17.83-1.054 6.102 1.748 11.409 5.612 14.946 10.879 1.142 1.701 2.93 2.861 4.948 3.21 2.019.35 4.092-.143 5.739-1.36 6.805-5.033 15.362-6.586 23.477-4.263 7.084 2.029 12.898 6.738 16.369 13.257 1.067 2.004 2.985 3.417 5.216 3.842 2.23.428 4.534-.183 6.264-1.654 9.665-8.221 22.701-11.045 34.871-7.562 20.002 5.729 31.613 26.664 25.884 46.666-.285.994-.614 1.968-.974 2.925h-111.129c-4.142 0-7.5 3.358-7.5 7.5s3.358 7.5 7.5 7.5h260.822z"/><circle cx="233.497" cy="271.5" r="7.5"/><circle cx="201.497" cy="246.5" r="7.5"/><circle cx="202.497" cy="176.5" r="7.5"/><circle cx="234.497" cy="205.5" r="7.5"/><circle cx="163.497" cy="247.5" r="7.5"/></g></g></svg>