<?xml version="1.0" encoding="iso-8859-1"?>
<!-- Generator: Adobe Illustrator 19.0.0, SVG Export Plug-In . SVG Version: 6.00 Build 0)  -->
<svg version="1.1" id="Capa_1" xmlns="http://www.w3.org/2000/svg" xmlns:xlink="http://www.w3.org/1999/xlink" x="0px" y="0px"
	 viewBox="0 0 512 512" style="enable-background:new 0 0 512 512;" xml:space="preserve">
<g>
	<g>
		<path d="M416,149.342c23.829,0,43.822-15.81,50.638-37.42l29.924,14.962c1.51,0.75,3.135,1.125,4.771,1.125
			c1.948,0,3.896-0.542,5.604-1.583c3.146-1.958,5.063-5.396,5.063-9.083V74.677c0-3.687-1.917-7.125-5.063-9.083
			c-3.135-1.937-7.063-2.104-10.375-0.458l-29.924,14.962c-6.816-21.61-26.809-37.42-50.638-37.42h-74.667V10.678
			c0-5.687-4.458-10.375-10.135-10.646c-5.458-0.417-10.573,3.937-11.146,9.583l-3.31,33.062H195.255l-3.307-33.062
			c-0.563-5.646-5.354-10.041-11.146-9.583c-5.677,0.271-10.135,4.958-10.135,10.646v31.999H96c-23.829,0-43.822,15.81-50.638,37.42
			L15.438,65.135c-3.302-1.646-7.229-1.458-10.375,0.458C1.917,67.552,0,70.99,0,74.677v42.666c0,3.687,1.917,7.125,5.063,9.083
			c1.708,1.042,3.656,1.583,5.604,1.583c1.635,0,3.26-0.375,4.771-1.125l29.924-14.962c6.816,21.61,26.809,37.42,50.638,37.42
			h74.667v42.666H96c-23.829,0-43.822,15.81-50.638,37.42l-29.924-14.962c-3.302-1.646-7.229-1.458-10.375,0.458
			C1.917,216.882,0,220.319,0,224.007v42.666c0,3.687,1.917,7.125,5.063,9.083c1.708,1.042,3.656,1.583,5.604,1.583
			c1.635,0,3.26-0.375,4.771-1.125l29.924-14.962c6.816,21.61,26.809,37.42,50.638,37.42h74.667
			c0,34.603,21.531,65.832,53.333,78.748v123.914c0,5.896,4.771,10.666,10.667,10.666h42.667c5.896,0,10.667-4.771,10.667-10.666
			V377.42c31.802-12.916,53.333-44.145,53.333-78.748H416c23.829,0,43.822-15.81,50.638-37.42l29.924,14.962
			c1.51,0.75,3.135,1.125,4.771,1.125c1.948,0,3.896-0.542,5.604-1.583c3.146-1.958,5.063-5.396,5.063-9.083v-42.666
			c0-3.687-1.917-7.125-5.063-9.083c-3.135-1.917-7.063-2.104-10.375-0.458l-29.924,14.962c-6.816-21.61-26.809-37.42-50.638-37.42
			h-74.667v-42.666H416z M490.667,91.917v8.167L482.521,96L490.667,91.917z M21.333,100.083v-8.167L29.479,96L21.333,100.083z
			 M21.333,249.417v-8.167l8.146,4.083L21.333,249.417z M490.667,241.25v8.167l-8.146-4.083L490.667,241.25z M273.708,359.813
			c-5.156,1.5-8.406,6.604-7.573,11.917c0.146,0.875,0.344,1.625,0.531,1.604v117.333h-21.333l-0.031-116.479
			c0.104-0.396,0.5-2.063,0.563-2.458c0.833-5.313-2.417-10.417-7.573-11.917C211.031,351.938,192,326.792,192,298.667h8.306
			c6.707,24.865,29.126,42.667,55.694,42.667s48.987-17.802,55.694-42.667H320C320,326.792,300.969,351.938,273.708,359.813z
			 M222.91,298.667h66.18C283.315,311.345,270.688,320,256,320S228.685,311.345,222.91,298.667z M368.917,213.333l18.208,18.208
			c2.083,2.083,4.813,3.125,7.542,3.125s5.458-1.042,7.542-3.125c4.167-4.167,4.167-10.917,0-15.083l-3.125-3.125H416
			c17.646,0,32,14.354,32,32c0,17.646-14.354,32-32,32H96c-17.646,0-32-14.354-32-32c0-17.646,14.354-32,32-32h16.917l18.208,18.208
			c2.083,2.083,4.813,3.125,7.542,3.125c2.729,0,5.458-1.042,7.542-3.125c4.167-4.167,4.167-10.917,0-15.083l-3.125-3.125h33.833
			l18.208,18.208c2.083,2.083,4.813,3.125,7.542,3.125c2.729,0,5.458-1.042,7.542-3.125c4.167-4.167,4.167-10.917,0-15.083
			l-3.125-3.125h33.833l18.208,18.208c2.083,2.083,4.813,3.125,7.542,3.125c2.729,0,5.458-1.042,7.542-3.125
			c4.167-4.167,4.167-10.917,0-15.083l-3.125-3.125h33.833l18.208,18.208c2.083,2.083,4.813,3.125,7.542,3.125
			c2.729,0,5.458-1.042,7.542-3.125c4.167-4.167,4.167-10.917,0-15.083l-3.125-3.125H368.917z M205.923,149.333h100.156L301.814,192
			h-91.629L205.923,149.333z M96,128c-17.646,0-32-14.354-32-32s14.354-32,32-32h16.917l18.208,18.208
			c2.083,2.083,4.813,3.125,7.542,3.125c2.729,0,5.458-1.042,7.542-3.125c4.167-4.167,4.167-10.917,0-15.083L143.083,64h33.833
			l18.208,18.208c2.083,2.083,4.813,3.125,7.542,3.125c2.729,0,5.458-1.042,7.542-3.125c4.167-4.167,4.167-10.917,0-15.083
			L207.083,64h33.833l18.208,18.208c2.083,2.083,4.813,3.125,7.542,3.125c2.729,0,5.458-1.042,7.542-3.125
			c4.167-4.167,4.167-10.917,0-15.083L271.083,64h33.833l18.208,18.208c2.083,2.083,4.813,3.125,7.542,3.125
			c2.729,0,5.458-1.042,7.542-3.125c4.167-4.167,4.167-10.917,0-15.083L335.083,64h33.833l18.208,18.208
			c2.083,2.083,4.813,3.125,7.542,3.125s5.458-1.042,7.542-3.125c4.167-4.167,4.167-10.917,0-15.083L399.083,64H416
			c17.646,0,32,14.354,32,32s-14.354,32-32,32H96z"/>
	</g>
</g>
<g>
</g>
<g>
</g>
<g>
</g>
<g>
</g>
<g>
</g>
<g>
</g>
<g>
</g>
<g>
</g>
<g>
</g>
<g>
</g>
<g>
</g>
<g>
</g>
<g>
</g>
<g>
</g>
<g>
</g>
</svg>
