<?xml version="1.0"?>
<svg xmlns="http://www.w3.org/2000/svg" width="512" height="512" viewBox="0 0 128 128"><g><path d="M123.119,54.86a9.7,9.7,0,0,0-6.812-6.783,23.341,23.341,0,0,0-7.579-.858c3.081-3.668,4.9-7.3,3.782-10.175-1.163-2.983-3.17-4.711-5.506-4.741h-.064c-2.414,0-4.606,1.793-5.874,4.809-.063.15-.127.32-.191.482a27.306,27.306,0,0,0-1.408-3.63,9.686,9.686,0,0,0-7.859-5.511,4.073,4.073,0,0,0-3.878,1.885c-.985,1.74-.5,4.127,1.447,7.093A24.408,24.408,0,0,1,93.629,50.28c-2.241-1.636-4.69-2.854-7.72-2.593a12.727,12.727,0,0,0-5.076,1.688,13,13,0,0,0,1.209-6.639,10.939,10.939,0,0,0-13.2-9.481A13.215,13.215,0,0,0,61.6,38.011a6.1,6.1,0,0,0-3.973.239,8.429,8.429,0,0,0-1.755.96A6.237,6.237,0,1,0,47.6,48.461a7.71,7.71,0,0,0-.358,3.394A16.346,16.346,0,0,0,40.016,48.8c-.384-2.863-2.031-5.694-4.367-6.641a9.76,9.76,0,0,0-4.255-5.568,6.281,6.281,0,0,0-4.059-.887A13.67,13.67,0,0,0,20.7,29.614a10.837,10.837,0,0,0-9.212.411,10.836,10.836,0,0,0-5.854,7.131,13.665,13.665,0,0,0,.895,8.962A6.269,6.269,0,0,0,4.8,49.872a9.773,9.773,0,0,0,1.9,6.765c-.627,2.351.594,5.141,2.245,7,1.7,1.917,3.741,2.857,5.612,2.661a9.071,9.071,0,0,0,2.5,2.281H17a1.751,1.751,0,0,0-1.744,1.9c.9,10.685,5.268,29.367,24.047,38.3A19.579,19.579,0,0,0,34.25,121.5,1.749,1.749,0,0,0,36,123.25H92a1.749,1.749,0,0,0,1.75-1.75A19.579,19.579,0,0,0,88.7,108.78c18.779-8.936,23.149-27.618,24.047-38.3A1.751,1.751,0,0,0,111,68.58h-7.2c1.925-5.62.146-9.069-2.605-11.877,4.1-.669,8.622.022,13.5,2.115a11.578,11.578,0,0,0,4.431,1.1,4.266,4.266,0,0,0,2.81-.913A4.042,4.042,0,0,0,123.119,54.86ZM102.9,42.358c.528-1.563.983-2.913,1.393-3.89.774-1.844,1.887-2.665,2.651-2.665h.014c.825.01,1.682.95,2.291,2.511.73,1.875-2.1,6.56-9.82,13.141A89.388,89.388,0,0,0,102.9,42.358ZM90.773,32.065a1.674,1.674,0,0,1,1.167-.059,6.382,6.382,0,0,1,4.352,3.43,18.1,18.1,0,0,1,1.88,9.861c-.354.966-.736,1.948-1.149,2.932A29.082,29.082,0,0,0,92.1,35.51C90.622,33.252,90.68,32.216,90.773,32.065ZM58.9,41.51a2.386,2.386,0,0,1,2.355.166,1.751,1.751,0,0,0,2.535-.629,9.618,9.618,0,0,1,5.859-4.385,7.44,7.44,0,0,1,8.911,6.4A9.594,9.594,0,0,1,76.282,50a1.738,1.738,0,0,0,.136,2.531A66.7,66.7,0,0,0,69.4,59.75a1.719,1.719,0,0,0-1.14-.352c-.053,0-3.324.2-6.561.758l3.783-5.274a15.006,15.006,0,0,1,5.306-.768,1.749,1.749,0,1,0,.447-3.47,13.181,13.181,0,0,0-2.746.046l3.371-4.7a1.749,1.749,0,1,0-2.843-2.039l-3.376,4.706a13.434,13.434,0,0,0-.837-2.627,1.75,1.75,0,0,0-3.145,1.537,14.926,14.926,0,0,1,.973,5.285l-3.78,5.271c-.51-3.25-1.374-6.419-1.388-6.469a1.75,1.75,0,0,0-3.371.938c.653,2.348,1.772,7.626,1.608,9.923l-3.638,5.072a19.537,19.537,0,0,0-.7-4.969c-.671-2.955-1.3-5.747.222-7.879a1.749,1.749,0,0,0-.4-2.439c-.709-.51-.57-1.968-.139-3.107.685-1.816,2.015-3,2.784-2.921a1.732,1.732,0,0,0,1.878-1.346,4.664,4.664,0,0,1,1.081-1.879c.014-.016.029-.032.042-.048A5.686,5.686,0,0,1,58.9,41.51Zm-3.24,27.07,2.9-4.04a35.945,35.945,0,0,1,8.134-1.511c-1.392,1.739-2.808,3.6-4.235,5.551ZM51.27,40.66a2.756,2.756,0,0,1,2.145,1.034,8.2,8.2,0,0,0-.687,1.193,6.479,6.479,0,0,0-3.45,2.415A2.747,2.747,0,0,1,51.27,40.66ZM47.248,56.6a19.787,19.787,0,0,0,.7,6.789,13.929,13.929,0,0,1,.584,4.506,4.938,4.938,0,0,0-.052.681H43.464l-1.827-1.827h3.685a1.75,1.75,0,0,0,0-3.5H41.636l2.607-2.607a1.75,1.75,0,0,0-2.474-2.475l-2.608,2.607V57.092a1.75,1.75,0,0,0-3.5,0v3.685l-2.606-2.606a1.75,1.75,0,0,0-2.475,2.475l2.607,2.607H29.5a1.75,1.75,0,0,0,0,3.5h3.687L31.359,68.58H24.99A12.928,12.928,0,0,1,46.562,55.857C46.811,56.106,47.035,56.354,47.248,56.6ZM15.914,62.609a1.752,1.752,0,0,0-1.338.1c-.856.432-2.128-.392-3.015-1.391-1.385-1.56-1.817-3.364-1.351-4.07A1.748,1.748,0,0,0,9.9,54.96a6.068,6.068,0,0,1-1.619-4.686,2.548,2.548,0,0,1,1.337-2.136A1.749,1.749,0,0,0,10.24,45.6a10.066,10.066,0,0,1-1.219-7.571,7.336,7.336,0,0,1,4.03-4.871,7.338,7.338,0,0,1,6.312-.3,10.063,10.063,0,0,1,5.328,5.509,1.75,1.75,0,0,0,2.4,1.024,2.571,2.571,0,0,1,2.526.222,6.047,6.047,0,0,1,2.763,4.1,1.75,1.75,0,0,0,1.64,1.627c.892.054,1.987,1.537,2.406,3.293a16.357,16.357,0,0,0-10.648,4.763c-.148.148-.283.3-.425.458L23.8,50.733A15.619,15.619,0,0,1,25.686,45.4a1.75,1.75,0,0,0-2.862-2.015,14.283,14.283,0,0,0-1.345,2.7L18.7,40.547a1.75,1.75,0,0,0-3.131,1.566l2.773,5.542a14.314,14.314,0,0,0-2.964-.543h-.054a1.75,1.75,0,0,0-.052,3.5A15.687,15.687,0,0,1,20.669,52.3l2.371,4.737q-.293.526-.543,1.07c-2.453-.778-4.774-1.338-5.514-1.5a1.75,1.75,0,0,0-.726,3.424c.851.18,2.975.71,5.119,1.387a16.465,16.465,0,0,0-.309,5.22,6.747,6.747,0,0,1-4.14-3.15A1.754,1.754,0,0,0,15.914,62.609ZM37.863,119.75c.614-4.749,3.55-8.574,5.087-9.543h.018c.017,0,.033,0,.05,0H85.03l.02,0h0c1.538.972,4.471,4.8,5.084,9.54Zm46.848-13.043H43.289C25.1,99.481,20.175,82.676,18.935,72.08h90.13C107.825,82.676,102.9,99.481,84.711,106.707ZM66.812,68.58c1.526-2.024,3.033-3.93,4.5-5.676,6.35-7.577,11.223-11.414,14.9-11.73,2.892-.246,5.148,1.654,8,4.066l.5.415c.023.022.049.042.074.063l.909.762.441.368.039.033.268.223a1.561,1.561,0,0,0,.14.118c3.808,3.206,5.964,5.567,3.492,11.358Zm52.9-12.275c-.133.123-1.146.361-3.633-.7a29.2,29.2,0,0,0-13.06-2.63q.75-.666,1.478-1.346a17.869,17.869,0,0,1,10.915-.165,6.408,6.408,0,0,1,4.15,3.689A1.707,1.707,0,0,1,119.712,56.305Z"/><path d="M98.991,85.92A32.391,32.391,0,0,1,94.5,92.735a1.75,1.75,0,1,0,2.648,2.289,35.865,35.865,0,0,0,4.976-7.551,1.75,1.75,0,0,0-3.137-1.553Z"/><path d="M57.4,17.25A6.25,6.25,0,1,0,51.145,11,6.257,6.257,0,0,0,57.4,17.25Zm0-9A2.75,2.75,0,1,1,54.645,11,2.753,2.753,0,0,1,57.4,8.25Z"/><path d="M37.543,27.63a6.25,6.25,0,1,0-6.25-6.25A6.257,6.257,0,0,0,37.543,27.63Zm0-9a2.75,2.75,0,1,1-2.75,2.75A2.752,2.752,0,0,1,37.543,18.63Z"/><path d="M82.94,25.724a6.25,6.25,0,1,0-6.25-6.25A6.257,6.257,0,0,0,82.94,25.724Zm0-9a2.75,2.75,0,1,1-2.75,2.75A2.752,2.752,0,0,1,82.94,16.724Z"/></g></svg>
