<svg id="Layer_1" enable-background="new 0 0 512 512" height="512" viewBox="0 0 512 512" width="512" xmlns="http://www.w3.org/2000/svg"><g><path d="m230.934 106.458h-.143c-4.142 0-7.5 3.357-7.5 7.5s3.358 7.5 7.5 7.5h.143c4.142 0 7.5-3.357 7.5-7.5s-3.358-7.5-7.5-7.5z"/><path d="m119.887 134.231h.143c4.142 0 7.5-3.357 7.5-7.5s-3.358-7.5-7.5-7.5h-.143c-4.142 0-7.5 3.357-7.5 7.5s3.358 7.5 7.5 7.5z"/><path d="m174.74 125.019h-.143c-4.142 0-7.5 3.357-7.5 7.5s3.358 7.5 7.5 7.5h.143c4.142 0 7.5-3.357 7.5-7.5s-3.358-7.5-7.5-7.5z"/><path d="m122.911 191.851h-.143c-4.142 0-7.5 3.357-7.5 7.5s3.358 7.5 7.5 7.5h.143c4.142 0 7.5-3.357 7.5-7.5s-3.358-7.5-7.5-7.5z"/><path d="m388.076 256.775h.143c4.142 0 7.5-3.357 7.5-7.5s-3.358-7.5-7.5-7.5h-.143c-4.142 0-7.5 3.357-7.5 7.5s3.358 7.5 7.5 7.5z"/><path d="m294.915 255.208h.171c4.142 0 7.5-3.357 7.5-7.5s-3.358-7.5-7.5-7.5h-.171c-4.142 0-7.5 3.357-7.5 7.5s3.357 7.5 7.5 7.5z"/><path d="m389.36 315.052h-.143c-4.142 0-7.5 3.357-7.5 7.5s3.358 7.5 7.5 7.5h.143c4.142 0 7.5-3.357 7.5-7.5s-3.358-7.5-7.5-7.5z"/><path d="m322.355 346.275h.143c4.142 0 7.5-3.357 7.5-7.5s-3.358-7.5-7.5-7.5h-.143c-4.142 0-7.5 3.357-7.5 7.5s3.358 7.5 7.5 7.5z"/><path d="m344.918 287.027h.143c4.142 0 7.5-3.357 7.5-7.5s-3.358-7.5-7.5-7.5h-.143c-4.142 0-7.5 3.357-7.5 7.5s3.358 7.5 7.5 7.5z"/><path d="m276.916 309.21h.171c4.142 0 7.5-3.357 7.5-7.5s-3.358-7.5-7.5-7.5h-.171c-4.142 0-7.5 3.357-7.5 7.5s3.357 7.5 7.5 7.5z"/><path d="m511.961 213.864c-.598-16.456-7.986-31.249-21.96-43.967-26.794-24.387-77.18-39.898-137.137-42.688 11.116-30.013 2.201-57.215-25.785-77.46-17.085-12.359-41.503-22.193-70.616-28.44-27.139-5.823-57.734-8.478-88.475-7.666-66.827 1.756-122.687 19.062-149.423 46.29-12.383 12.612-18.629 27.094-18.564 43.045.066 16.209 6.791 33.616 19.995 51.771v52.585c0 4.143 3.358 7.5 7.5 7.5s7.5-3.357 7.5-7.5v-55.057c0-1.625-.528-3.207-1.504-4.506-23.06-30.682-24.481-56.699-4.224-77.33 23.717-24.153 77.023-40.173 139.116-41.805 61.853-1.628 119.293 11.121 149.904 33.265 23.939 17.317 30.158 39.129 18.554 64.876-1.229-.01-2.454-.027-3.69-.027-6.444 0-12.8.143-19.053.424 6.217-10.115 10.859-21.955 7.364-31.756-6.044-16.984-33.275-28.205-44.688-32.236-34.223-12.165-72.143-14.719-97.927-14.719-25.779 0-63.699 2.554-97.941 14.713-11.418 4.034-38.626 15.249-44.667 32.221-3.664 10.199.78 23.779 13.218 40.377l5.509 7.32v198.731c0 5.864 4.772 10.636 10.638 10.636h108.681v17.761h-134.952c-2.392 0-4.338-1.943-4.338-4.333v-122.344c0-4.143-3.358-7.5-7.5-7.5s-7.5 3.357-7.5 7.5v122.345c0 10.66 8.675 19.333 19.338 19.333h134.952v93.917c0 10.676 8.688 19.361 19.367 19.361h121.144c4.142 0 7.5-3.357 7.5-7.5s-3.358-7.5-7.5-7.5h-121.145c-2.408 0-4.367-1.956-4.367-4.361v-213.613c0-1.625-.528-3.206-1.504-4.506-24.07-32.032-24.535-58.958-1.382-80.031 57.604-52.43 235.901-52.43 293.506 0 23.153 21.073 22.688 47.999-1.382 80.031-.977 1.3-1.504 2.881-1.504 4.506v213.612c0 2.405-1.958 4.361-4.366 4.361h-122.999c-4.142 0-7.5 3.357-7.5 7.5s3.358 7.5 7.5 7.5h122.998c10.679 0 19.366-8.686 19.366-19.361v-211.141c13.85-19.047 20.557-37.248 19.943-54.134zm-215.739-87.106-1.312 1.746c-51.734 4.848-94.624 19.564-118.608 41.394-13.974 12.718-21.362 27.511-21.96 43.967-.614 16.886 6.094 35.087 19.943 54.134v69.464h-104.318v-196.875c0-1.627-.529-3.21-1.508-4.51l-7.007-9.311c-10.238-13.663-12.444-22.543-11.088-26.319 2.974-8.355 19.992-17.636 35.55-23.132 32.241-11.449 68.333-13.853 92.934-13.853 24.604 0 60.695 2.403 92.917 13.857 15.563 5.497 32.596 14.779 35.568 23.131 1.698 4.765-2.662 15.088-11.111 26.307z"/><path d="m219.895 465.712h226.514c5.85 0 10.609-4.759 10.609-10.607v-198.738l5.511-7.345c12.436-16.533 16.895-30.109 13.248-40.367-6.05-16.894-33.263-28.162-44.689-32.226-34.311-12.163-72.204-14.716-97.95-14.716-25.733 0-63.61 2.553-97.928 14.719-11.42 4.061-38.633 15.33-44.688 32.238-3.642 10.242.817 23.818 13.248 40.345l5.516 7.352v198.737c0 5.849 4.759 10.608 10.609 10.608zm-15.246-252c2.974-8.305 20.016-17.609 35.579-23.144 32.301-11.451 68.353-13.854 92.909-13.854 34.73 0 67.736 4.92 92.931 13.852 15.57 5.537 32.612 14.842 35.581 23.131 1.693 4.761-2.667 15.089-11.113 26.317l-7.017 9.352c-.974 1.298-1.501 2.878-1.501 4.501v196.846h-217.732v-196.847c0-1.623-.527-3.203-1.501-4.501l-7.022-9.358c-8.441-11.222-12.801-21.55-11.114-26.295z"/><path d="m288.326 382.426h-.171c-4.142 0-7.5 3.357-7.5 7.5s3.358 7.5 7.5 7.5h.171c4.142 0 7.5-3.357 7.5-7.5s-3.358-7.5-7.5-7.5z"/><path d="m378.463 393.149h.143c4.142 0 7.5-3.357 7.5-7.5s-3.358-7.5-7.5-7.5h-.143c-4.142 0-7.5 3.357-7.5 7.5s3.358 7.5 7.5 7.5z"/><path d="m118.917 265.982h-.171c-4.142 0-7.5 3.357-7.5 7.5s3.358 7.5 7.5 7.5h.171c4.142 0 7.5-3.357 7.5-7.5s-3.357-7.5-7.5-7.5z"/></g></svg>