<svg id="Capa_1" enable-background="new 0 0 511.994 511.994" height="512" viewBox="0 0 511.994 511.994" width="512" xmlns="http://www.w3.org/2000/svg"><g><path d="m227.57 79.5c-5.523 0-10 4.477-10 10s4.477 10 10 10h.057c5.523 0 9.971-4.477 9.971-10s-4.505-10-10.028-10z"/><path d="m192.805 124.342c-5.523 0-10 4.477-10 10s4.477 10 10 10h.058c5.523 0 9.971-4.477 9.971-10s-4.506-10-10.029-10z"/><path d="m458.281 26.499-17.072-18.998c-8.287-9.207-22.525-10.052-31.712-1.903l-32.145 28.32c-.009.009-.019.015-.028.024-.001.001-.002.003-.004.004l-58.04 51.134c-5.573-12.581-13.746-23.989-24.148-33.451-18.436-16.77-42.327-26.006-67.273-26.006-39.087 0-73.001 22.525-89.424 55.257-40.278 3.302-72.048 37.072-72.048 78.135 0 4.625.421 9.227 1.228 13.769-11.553 5.217-19.616 16.831-19.616 30.297 0 41.246 14.975 81.024 42.166 112.008 24.996 28.481 58.67 47.768 95.573 54.91v72.679h-39.59c-19.123 0-34.681 15.554-34.681 34.673v24.644c0 5.523 4.477 10 10 10h193.593c5.523 0 10-4.477 10-10v-24.645c0-19.119-15.57-34.673-34.709-34.673h-39.591v-72.676c19.86-3.826 38.659-11.089 55.997-21.646 4.717-2.873 6.213-9.025 3.34-13.742-2.872-4.718-9.023-6.212-13.742-3.341-17.483 10.645-36.657 17.494-56.989 20.357-4.936.695-8.606 4.918-8.606 9.902v81.146h-25.022v-81.146c0-4.985-3.672-9.209-8.609-9.903-73.616-10.338-129.129-74.2-129.129-148.548 0-7.3 5.954-13.238 13.272-13.238h32.064c4.657 0 8.446 3.777 8.446 8.419v30.066c0 18.518 15.081 33.583 33.617 33.583s33.617-15.065 33.617-33.583v-18.504c0-6.287 5.142-11.402 11.462-11.402s11.462 5.115 11.462 11.402v46.075c0 18.518 15.081 33.583 33.618 33.583s33.617-15.065 33.617-33.583v-57.636c0-4.642 3.789-8.419 8.446-8.419h67.605c3.545 0 6.888 1.393 9.412 3.922 2.498 2.503 3.869 5.804 3.861 9.316 0 23.979-5.48 46.87-16.289 68.036-2.511 4.919-.56 10.942 4.358 13.454 4.918 2.511 10.942.561 13.454-4.358 12.26-24.009 18.476-49.96 18.476-77.109.02-8.84-3.426-17.174-9.703-23.465-2.588-2.594-5.528-4.7-8.706-6.292-.213-11.468-3.052-22.325-8.031-31.902l94.31-83.089c4.557-4.02 7.254-9.584 7.596-15.67.335-6.022-1.692-11.781-5.683-16.187zm-217.523 436.178h49.591c8.11 0 14.709 6.582 14.709 14.673v14.644h-173.594v-14.644c0-8.091 6.586-14.673 14.681-14.673h49.59zm46.861-292.834c-15.685 0-28.446 12.749-28.446 28.419v57.636c0 7.49-6.109 13.583-13.617 13.583-7.509 0-13.618-6.093-13.618-13.583v-46.075c0-17.315-14.114-31.402-31.462-31.402s-31.462 14.087-31.462 31.402v18.504c0 7.489-6.108 13.583-13.617 13.583-7.508 0-13.617-6.093-13.617-13.583v-30.066c0-15.67-12.761-28.419-28.446-28.419h-25.936c-.669-3.57-1.014-7.191-1.014-10.828 0-27.289 18.841-50.261 44.217-56.651-1.764 7.413-2.703 15.141-2.703 23.084 0 5.523 4.477 10 10 10s10-4.477 10-10c0-44.016 35.869-79.826 79.958-79.826 36.659 0 67.714 24.365 77.061 58.501-1.908-.133-3.828-.197-5.759-.179-9.628.064-18.958 1.943-27.729 5.584-5.101 2.117-7.52 7.969-5.402 13.07s7.969 7.52 13.069 5.402c6.371-2.645 13.166-4.009 20.219-4.056 5.199-.059 10.323.663 15.18 2.107 11.056 3.298 20.222 10.162 26.488 19.179.022.031.043.062.065.092 4.894 7.076 7.997 15.474 8.826 24.521h-62.255zm62.692-44.706c-6.631-6.854-14.703-12.364-23.877-16.064-.174-1.054-.35-2.107-.558-3.152l22.293-19.64 21.049 22.198zm33.924-29.888-21.049-22.198 20.491-18.053c1.429 1.455 2.881 2.928 4.375 4.441 5.782 5.855 11.684 11.843 16.892 17.564zm58.905-51.897-23.188 20.429c-5.526-6.087-11.662-12.311-17.668-18.395-1.218-1.233-2.406-2.438-3.578-3.629l24.035-21.175c1.004-.892 2.654-.754 3.597.293l17.093 19.022c.509.563.586 1.218.561 1.67-.022.406-.164 1.179-.852 1.785z"/><path d="m328.389 305.141c-3.938 3.872-3.993 10.203-.121 14.142 1.958 1.992 4.544 2.99 7.132 2.99 2.531 0 5.063-.955 7.01-2.869l.029-.028c3.938-3.872 3.979-10.189.106-14.127-3.871-3.939-10.217-3.979-14.156-.108z"/></g></svg>